HIERARCHY
ROOT joint_0
{
	OFFSET 0.000000 0.000000 0.000000
	CHANNELS 6 Xposition Yposition Zposition Zrotation Yrotation Xrotation 
	JOINT joint_1
	{
		OFFSET 4.520508 -1.939880 86.268921
		CHANNELS 3 Zrotation Yrotation Xrotation
		JOINT joint_2
		{
			OFFSET -4.459717 -0.438538 78.934082
			CHANNELS 3 Zrotation Yrotation Xrotation
			JOINT joint_3
			{
				OFFSET -5.197754 -0.781128 78.796997
				CHANNELS 3 Zrotation Yrotation Xrotation
				JOINT joint_4
				{
					OFFSET 2.952026 -3.710571 109.812988
					CHANNELS 3 Zrotation Yrotation Xrotation
					JOINT joint_5
					{
						OFFSET 24.716797 -5.488037 87.903931
						CHANNELS 3 Zrotation Yrotation Xrotation
						End Site
						{
							OFFSET 0.000000 0.000000 0.000000
						}
					}
				}
				JOINT joint_6
				{
					OFFSET -3.154419 -25.484680 60.934937
					CHANNELS 3 Zrotation Yrotation Xrotation
					JOINT joint_7
					{
						OFFSET -28.997192 -144.472229 -32.671997
						CHANNELS 3 Zrotation Yrotation Xrotation
						JOINT joint_8
						{
							OFFSET 19.867676 -18.614380 -249.897949
							CHANNELS 3 Zrotation Yrotation Xrotation
							JOINT joint_9
							{
								OFFSET 5.281982 -13.816650 -264.993042
								CHANNELS 3 Zrotation Yrotation Xrotation
								End Site
								{
									OFFSET 0.000000 0.000000 0.000000
								}
							}
						}
					}
				}
				JOINT joint_10
				{
					OFFSET 6.494995 21.336792 62.257935
					CHANNELS 3 Zrotation Yrotation Xrotation
					JOINT joint_11
					{
						OFFSET 31.106567 145.200745 -27.007935
						CHANNELS 3 Zrotation Yrotation Xrotation
						JOINT joint_12
						{
							OFFSET 29.119141 24.684326 -248.460083
							CHANNELS 3 Zrotation Yrotation Xrotation
							JOINT joint_13
							{
								OFFSET 21.220093 31.248413 -262.703979
								CHANNELS 3 Zrotation Yrotation Xrotation
								End Site
								{
									OFFSET 0.000000 0.000000 0.000000
								}
							}
						}
					}
				}
			}
		}
	}
	JOINT joint_14
	{
		OFFSET -15.458496 -88.861694 -109.593018
		CHANNELS 3 Zrotation Yrotation Xrotation
		JOINT joint_15
		{
			OFFSET -6.193359 6.837952 -506.710999
			CHANNELS 3 Zrotation Yrotation Xrotation
			JOINT joint_16
			{
				OFFSET -35.096680 13.289795 -435.677025
				CHANNELS 3 Zrotation Yrotation Xrotation
				JOINT joint_17
				{
					OFFSET 158.491211 -33.916565 -71.771002
					CHANNELS 3 Zrotation Yrotation Xrotation
					End Site
					{
						OFFSET 0.000000 0.000000 0.000000
					}
				}
			}
		}
	}
	JOINT joint_18
	{
		OFFSET 23.116943 86.574158 -110.082031
		CHANNELS 3 Zrotation Yrotation Xrotation
		JOINT joint_19
		{
			OFFSET -6.125854 -0.283569 -506.757019
			CHANNELS 3 Zrotation Yrotation Xrotation
			JOINT joint_20
			{
				OFFSET -63.240234 11.589966 -432.537994
				CHANNELS 3 Zrotation Yrotation Xrotation
				JOINT joint_21
				{
					OFFSET 156.074219 -41.487305 -73.077999
					CHANNELS 3 Zrotation Yrotation Xrotation
					End Site
					{
						OFFSET 0.000000 0.000000 0.000000
					}
				}
			}
		}
	}
}
MOTION
Frames: 6
Frame Time: 0.016667
-366.030579 856.222473 1139.243042 2.466588 0.061731 0.523100 -0.088535 0.680222 -0.826991 -0.036337 -0.147921 0.200553 -0.054757 0.124511 -0.116428 -0.429473 2.692279 2.099289 0.000000 0.000000 0.000000 0.010916 -0.069956 -0.615020 0.220985 -0.498891 1.286493 -0.028250 -0.025435 -1.414533 0.000000 0.000000 0.000000 0.431538 -0.274296 0.018747 -0.124657 -0.267952 -0.493255 -0.091732 -1.082300 0.480530 0.000000 0.000000 0.000000 -0.387835 -3.081585 -1.699073 -0.297840 5.095086 1.011291 -0.368691 -1.944402 -0.583150 0.000000 0.000000 0.000000 0.005293 -2.176594 -0.774975 -0.009616 3.441799 0.760243 0.027884 -0.936716 -0.236086 0.000000 0.000000 0.000000 
-366.235809 856.276489 1139.214966 2.476266 0.011226 0.510423 -0.092318 0.710173 -0.801804 -0.042284 -0.152099 0.192724 -0.059738 0.129853 -0.110929 -0.429132 2.689748 2.097639 0.000000 0.000000 0.000000 0.027336 -0.057476 -0.639805 0.220358 -0.489259 1.295142 -0.027615 -0.034679 -1.407630 0.000000 0.000000 0.000000 0.450644 -0.252833 0.049185 -0.121654 -0.244077 -0.488025 -0.087748 -1.058240 0.493933 0.000000 0.000000 0.000000 -0.388560 -3.047912 -1.677867 -0.298250 5.119516 0.990404 -0.371319 -1.951653 -0.585885 0.000000 0.000000 0.000000 0.004207 -2.140605 -0.756275 -0.010349 3.459385 0.743165 0.024633 -0.946844 -0.240299 0.000000 0.000000 0.000000 
-366.445862 856.342590 1139.187012 2.489844 -0.037017 0.498286 -0.100230 0.737857 -0.772945 -0.052658 -0.154988 0.182915 -0.068880 0.134466 -0.103090 -0.428552 2.684420 2.094648 0.000000 0.000000 0.000000 0.052766 -0.043304 -0.665291 0.218448 -0.474218 1.296167 -0.026673 -0.048374 -1.397403 0.000000 0.000000 0.000000 0.477513 -0.229606 0.076463 -0.119206 -0.219999 -0.485887 -0.082716 -1.030684 0.515122 0.000000 0.000000 0.000000 -0.390863 -3.018174 -1.660780 -0.300228 5.147233 0.975466 -0.375083 -1.960710 -0.589522 0.000000 0.000000 0.000000 0.001468 -2.110888 -0.741583 -0.012827 3.483504 0.731629 0.020394 -0.958118 -0.245279 0.000000 0.000000 0.000000 
-366.662933 856.406799 1139.159058 2.503905 -0.081650 0.486621 -0.104702 0.766835 -0.748386 -0.059265 -0.158661 0.174819 -0.074507 0.138704 -0.097380 -0.429447 2.677728 2.096451 0.000000 0.000000 0.000000 0.066485 -0.028949 -0.686409 0.217215 -0.461011 1.297638 -0.026401 -0.051324 -1.391923 0.000000 0.000000 0.000000 0.492038 -0.208725 0.105619 -0.116387 -0.196068 -0.481108 -0.078092 -1.004524 0.533360 0.000000 0.000000 0.000000 -0.393575 -2.994233 -1.646582 -0.302558 5.177886 0.965274 -0.378889 -1.970277 -0.593287 0.000000 0.000000 0.000000 -0.001746 -2.087553 -0.728407 -0.015804 3.511360 0.722391 0.015933 -0.969648 -0.250432 0.000000 0.000000 0.000000 
-366.894104 856.464233 1139.131958 2.518790 -0.120154 0.474928 -0.103646 0.798736 -0.731829 -0.059731 -0.165181 0.170147 -0.074375 0.144731 -0.094697 -0.432800 2.666589 2.105760 0.000000 0.000000 0.000000 0.060690 -0.017110 -0.698338 0.217002 -0.452882 1.297928 -0.027181 -0.036980 -1.392829 0.000000 0.000000 0.000000 0.488253 -0.193015 0.139316 -0.113135 -0.173591 -0.472856 -0.074225 -0.980666 0.545644 0.000000 0.000000 0.000000 -0.396884 -2.980944 -1.635413 -0.305313 5.214821 0.961788 -0.382724 -1.979647 -0.597024 0.000000 0.000000 0.000000 -0.005214 -2.075839 -0.716076 -0.019033 3.547165 0.715643 0.011424 -0.981652 -0.255734 0.000000 0.000000 0.000000 
-367.132324 856.518799 1139.104980 2.533778 -0.154855 0.463958 -0.099278 0.831622 -0.721444 -0.056369 -0.172923 0.168654 -0.070688 0.151478 -0.093202 -0.437414 2.652579 2.118788 0.000000 0.000000 0.000000 0.043772 -0.005382 -0.706661 0.217406 -0.446819 1.298345 -0.028604 -0.012152 -1.397729 0.000000 0.000000 0.000000 0.472432 -0.179686 0.174095 -0.109559 -0.151535 -0.461947 -0.070784 -0.958606 0.555343 0.000000 0.000000 0.000000 -0.400355 -2.973847 -1.627565 -0.308169 5.254988 0.963498 -0.386326 -1.989502 -0.600761 0.000000 0.000000 0.000000 -0.008736 -2.070556 -0.705434 -0.022338 3.586475 0.710923 0.007063 -0.994155 -0.261099 0.000000 0.000000 0.000000 
